# xmcd CD database file
#
# Track frame offsets:
#	150
#	17790
#	37245
#	56870
#	63720
#	80980
#	100232
#	102817
#	112550
#	130365
#	145067
#	167137
#
# Disc length: 2717 seconds
#
# Revision: 0
# Processed by: cddbd v1.5.1PL2 Copyright (c) Steve Scherf et al.
# Submitted via: CDex 1.51
#
DISCID=ab0a9b0c
DTITLE=Sweaty Nipples - Bug Harvest
DYEAR=1900
DGENRE=Rock
TTITLE0=demon juice
TTITLE1=pig boy
TTITLE2=labrador
TTITLE3=smiles!
TTITLE4=swollen
TTITLE5=eye tooth magnet
TTITLE6=saloonatic
TTITLE7=tequila
TTITLE8=clumsy
TTITLE9=inside
TTITLE10=knuckle farm
TTITLE11=someone said
EXTD=
EXTT0=
EXTT1=
EXTT2=
EXTT3=
EXTT4=
EXTT5=
EXTT6=
EXTT7=
EXTT8=
EXTT9=
EXTT10=
EXTT11=
PLAYORDER=
